Coordinates
version=1
nRows=26
nColumns=22
inDegrees=yes

Units are S.I. units (second, meters, Newtons, ...)
If the header above contains a line with 'inDegrees', this indicates whether rotational values are in degrees (yes) or radians (no).

endheader
time	pelvis_tilt	pelvis_list	pelvis_rotation	pelvis_tx	pelvis_ty	pelvis_tz	hip_flexion_r	hip_adduction_r	hip_rotation_r	knee_angle_r	ankle_angle_r	subtalar_angle_r	hip_flexion_l	hip_adduction_l	hip_rotation_l	knee_angle_l	ankle_angle_l	subtalar_angle_l	lumbar_extension	lumbar_bending	lumbar_rotation
      3.53000000	     -0.48053056	     -0.85035178	     15.70665794	     -0.00590544	      0.94720110	     -0.43453131	     31.03803397	      0.05798475	    -14.72815431	    -45.99028478	      9.56984450	     -5.49204106	      4.61348149	     -4.67327429	      0.37101525	    -19.97449643	     14.34243253	      2.14362021	     -9.74672650	     -2.01276988	     -5.93000541
      3.54000000	     -0.48816044	     -0.81383952	     15.15176009	      0.00158237	      0.94622727	     -0.43559973	     31.09696224	     -0.09163007	    -15.70095474	    -43.44497338	      9.60189700	     -5.17330052	      3.94038967	     -4.67869792	     -0.20889487	    -19.88690704	     14.79087405	      2.01754115	     -9.79584189	     -1.99220125	     -6.16794073
      3.55000000	     -0.49737009	     -0.76013590	     14.58819929	      0.00916468	      0.94511729	     -0.43654604	     31.07870088	     -0.21007596	    -16.69572139	    -40.81482679	      9.67150922	     -4.85260469	      3.27776536	     -4.66397011	     -0.80451952	    -19.83422563	     15.24371911	      1.90645281	     -9.83823229	     -1.98498325	     -6.37831203
      3.56000000	     -0.52792256	     -0.71656254	     14.01308990	      0.01684178	      0.94383693	     -0.43733327	     31.01805069	     -0.26521206	    -17.70768994	    -38.11272491	      9.75573565	     -4.59547296	      2.65102643	     -4.65296959	     -1.39012650	    -19.81377347	     15.71705006	      1.79993135	     -9.84397630	     -1.97297916	     -6.53425147
      3.57000000	     -0.56060650	     -0.66169524	     13.42425381	      0.02461080	      0.94242641	     -0.43799053	     30.90151549	     -0.27165789	    -18.70800821	    -35.37148469	      9.87593016	     -4.35892460	      2.03140450	     -4.62861739	     -1.98881658	    -19.81902230	     16.19545642	      1.71459252	     -9.83929597	     -1.96582974	     -6.64990434
      3.58000000	     -0.61126040	     -0.60504290	     12.82387050	      0.03243798	      0.94085832	     -0.43848821	     30.75989789	     -0.21187993	    -19.63743659	    -32.61312041	     10.01318802	     -4.14680213	      1.44689250	     -4.60046639	     -2.59809111	    -19.86193307	     16.69589635	      1.63600471	     -9.80869191	     -1.95878786	     -6.75115759
      3.59000000	     -0.64004586	     -0.52238309	     12.20720999	      0.04037693	      0.93922437	     -0.43884731	     30.55590744	     -0.12124845	    -20.52593593	    -29.88797478	     10.20997969	     -3.88746293	      0.81443920	     -4.54945925	     -3.21399883	    -19.88647864	     17.16267729	      1.63942881	     -9.80158466	     -1.97257395	     -6.78601308
      3.60000000	     -0.69205085	     -0.44047283	     11.58768117	      0.04835335	      0.93744366	     -0.43907343	     30.35423906	      0.02440906	    -21.28383965	    -27.22010796	     10.38968667	     -3.64696547	      0.22524545	     -4.49461992	     -3.82617601	    -19.94799867	     17.65015849	      1.65450566	     -9.76356226	     -1.97815152	     -6.81985778
      3.61000000	     -0.75598979	     -0.36177124	     10.96900645	      0.05639450	      0.93555124	     -0.43918263	     30.15387293	      0.20603658	    -21.94667116	    -24.66422594	     10.52259306	     -3.45192451	     -0.34260708	     -4.44351093	     -4.45157489	    -20.02876527	     18.14752575	      1.66166771	     -9.70557678	     -1.96955115	     -6.84471867
      3.62000000	     -0.79292059	     -0.26014267	     10.36189596	      0.06454160	      0.93364541	     -0.43919637	     29.90919413	      0.38874075	    -22.51262833	    -22.26555948	     10.71398527	     -3.25885576	     -0.95892948	     -4.36819290	     -5.02286679	    -20.08998115	     18.59424098	      1.77099842	     -9.67673152	     -1.96862411	     -6.86586751
      3.63000000	     -0.85461500	     -0.16861675	      9.77200437	      0.07277701	      0.93163275	     -0.43913473	     29.71199394	      0.56259542	    -23.05785751	    -20.11333490	     10.83257499	     -3.14929037	     -1.53164893	     -4.30434479	     -5.60718205	    -20.18122929	     19.04900558	      1.82981252	     -9.61022363	     -1.94386161	     -6.90378052
      3.64000000	     -0.87635875	     -0.06453517	      9.21347261	      0.08118733	      0.92966302	     -0.43903820	     29.47812696	      0.70536019	    -23.58705016	    -18.23902293	     10.97217013	     -3.09593422	     -2.16217677	     -4.22718447	     -6.11816307	    -20.26065961	     19.44711386	      1.97313699	     -9.57543216	     -1.90308161	     -6.96736259
      3.65000000	     -0.88182802	      0.03300350	      8.68380412	      0.08974096	      0.92770299	     -0.43885765	     29.25886413	      0.81822250	    -24.15157478	    -16.70847171	     11.08258773	     -3.12505151	     -2.80419849	     -4.16073115	     -6.57596053	    -20.35381512	     19.80746377	      2.15936522	     -9.55244646	     -1.83936186	     -7.05748359
      3.66000000	     -0.87967452	      0.11706449	      8.18560609	      0.09848846	      0.92575715	     -0.43863069	     29.07086103	      0.89399687	    -24.75782395	    -15.56982188	     11.17066817	     -3.25082214	     -3.44877521	     -4.10995375	     -6.98077755	    -20.46651903	     20.12223918	      2.37205837	     -9.52043152	     -1.73658526	     -7.17945507
      3.67000000	     -0.86262836	      0.17832369	      7.71172613	      0.10744109	      0.92385732	     -0.43831928	     28.91257537	      0.94030436	    -25.41913412	    -14.84934177	     11.22010433	     -3.46568104	     -4.10109258	     -4.08842136	     -7.33516665	    -20.60519062	     20.38339997	      2.59721235	     -9.48553139	     -1.59047627	     -7.32584959
      3.68000000	     -0.82725667	      0.22635577	      7.25510529	      0.11661617	      0.92204965	     -0.43791031	     28.77920012	      0.94644737	    -26.11537251	    -14.55502699	     11.20891728	     -3.80858120	     -4.78130128	     -4.08438980	     -7.63403369	    -20.74495583	     20.57321550	      2.89756140	     -9.45321882	     -1.41086570	     -7.49140424
      3.69000000	     -0.79681417	      0.26312750	      6.78856950	      0.12596881	      0.92031927	     -0.43735474	     28.69703928	      0.92306787	    -26.78208680	    -14.66612614	     11.10778577	     -4.36819169	     -5.44718944	     -4.09361918	     -7.90698293	    -20.92077489	     20.68496884	      3.30787067	     -9.40715029	     -1.20726466	     -7.63617678
      3.70000000	     -0.74193337	      0.24776671	      6.33659476	      0.13554547	      0.91876078	     -0.43667550	     28.60986768	      0.90628524	    -27.47188207	    -15.11288663	     10.91720494	     -4.92037845	     -6.13596420	     -4.15898358	     -8.09072282	    -21.11294016	     20.70478402	      3.69175755	     -9.36874333	     -0.92623841	     -7.78929760
      3.71000000	     -0.70249666	      0.19532587	      5.85661575	      0.14533664	      0.91734773	     -0.43577909	     28.55696203	      0.90942786	    -28.08863241	    -15.83728753	     10.63341549	     -5.61601511	     -6.79511273	     -4.26818903	     -8.27442445	    -21.34985870	     20.61123656	      4.17803659	     -9.29679812	     -0.59911395	     -7.92580099
      3.72000000	     -0.66409251	      0.08595668	      5.34884985	      0.15530170	      0.91615591	     -0.43464376	     28.51286680	      0.96694259	    -28.61946457	    -16.75591935	     10.22124168	     -6.31428220	     -7.42393092	     -4.43863413	     -8.40863275	    -21.65352728	     20.39655054	      4.72367881	     -9.21554233	     -0.20286920	     -8.02951543
      3.73000000	     -0.63985124	     -0.10443393	      4.79585441	      0.16542374	      0.91521866	     -0.43320334	     28.47747545	      1.13411048	    -29.00509258	    -17.76865073	      9.68030254	     -6.94119189	     -7.99375598	     -4.69709204	     -8.50934320	    -22.05030861	     20.05613242	      5.34021744	     -9.11287658	      0.28124161	     -8.08307468
      3.74000000	     -0.67180075	     -0.33467738	      4.16779249	      0.17560096	      0.91449774	     -0.43138765	     28.50699233	      1.40393509	    -29.10525576	    -18.82922835	      9.06413451	     -7.53712125	     -8.41943132	     -4.99724077	     -8.59334260	    -22.61451626	     19.52295433	      6.06145322	     -8.96024765	      0.79419382	     -8.06525723
      3.75000000	     -0.75165963	     -0.62356122	      3.45842765	      0.18582413	      0.91403720	     -0.42917174	     28.58255020	      1.81515775	    -28.92301173	    -19.87853057	      8.40393634	     -7.95159059	     -8.70097748	     -5.36231614	     -8.66597727	    -23.35884553	     18.81741126	      6.82246783	     -8.77053377	      1.35575782	     -7.97437437
      3.76000000	     -0.88426674	     -0.93280179	      2.67494925	      0.19604180	      0.91384017	     -0.42655759	     28.69583421	      2.34752956	    -28.42929491	    -20.86994833	      7.74683062	     -8.25960763	     -8.80270851	     -5.74855187	     -8.65149695	    -24.33109616	     17.87665541	      7.70643466	     -8.54579509	      1.91848496	     -7.83066776
      3.77000000	     -1.06205163	     -1.23427072	      1.80986867	      0.20623171	      0.91388770	     -0.42355594	     28.83366520	      2.97312090	    -27.67485649	    -21.79841516	      7.12566407	     -8.42264354	     -8.70859331	     -6.13658143	     -8.59842780	    -25.56776095	     16.67758091	      8.61931323	     -8.29937395	      2.45247477	     -7.63933281
      3.78000000	     -1.26723240	     -1.49172172	      0.87870261	      0.21638379	      0.91417575	     -0.42022164	     28.95713669	      3.64204093	    -26.75204024	    -22.64280080	      6.56138662	     -8.53075322	     -8.42045726	     -6.48828340	     -8.46236763	    -27.08118243	     15.18648314	      9.59497492	     -8.04709760	      2.91902433	     -7.41992133
